<svg data-v-0dd9719b="" version="1.0" xmlns="http://www.w3.org/2000/svg" xmlns:xlink="http://www.w3.org/1999/xlink" width="100%" height="100%" viewBox="0 0 340.000000 250.000000" preserveAspectRatio="xMidYMid meet" color-interpolation-filters="sRGB" style="margin: auto;"> <rect data-v-0dd9719b="" x="0" y="0" width="100%" height="100%" fill="#fff" fill-opacity="1" class="background"></rect> <rect data-v-0dd9719b="" x="0" y="0" width="100%" height="100%" fill="url(#watermark)" fill-opacity="1" class="watermarklayer"></rect> <g data-v-0dd9719b="" fill="#0b56a6" class="icon-text-wrapper icon-svg-group iconsvg" transform="translate(48.524993896484375,96.91593551635742)"><g class="iconsvg-imagesvg" transform="translate(0,1.2961978912353516)"><g><rect fill="#0b56a6" fill-opacity="0" stroke-width="2" x="0" y="0" width="60" height="53.57573376432035" class="image-rect"></rect> <svg x="0" y="0" width="60" height="53.57573376432035" filtersec="colorsb9184370537" class="image-svg-svg primary" style="overflow: visible;"><svg xmlns="http://www.w3.org/2000/svg" viewBox="0 -0.011434555053710938 424.6799621582031 379.20831298828125"><path d="M212.33 145.28a44.31 44.31 0 1 1-44.29 44.33 44.32 44.32 0 0 1 44.29-44.33z" fill="#da251d" fill-rule="evenodd"></path><path d="M307.2 25.47l-.05-.05c-14-8.06-37.41 1.17-64 22.66-29.28 23.64-60.88 61.71-87.94 108.54l-.07.14c-27 46.79-44.1 93.16-49.95 130.28-5.32 33.74-1.6 58.65 12.38 66.73 14 8.07 37.4-1.18 64-22.67 29.25-23.64 60.89-61.71 87.93-108.54 27-46.84 44.17-93.23 50-130.42 5.32-33.7 1.66-58.58-12.28-66.67zm-78.27 4.88c32.56-26.34 63.78-37 86.55-26.17h.27l2.72 1.56c23 13.28 30.27 46.66 23.47 89.87-6.14 39.06-23.69 87.23-51.25 135.57v.07l-1.57 2.72c-28.43 49.23-62 89.53-93.35 114.85-34 27.51-66.57 37.9-89.56 24.64-23-13.27-30.25-46.66-23.42-89.87 6.26-39.82 24.36-89 52.8-138.31v-.05c28.42-49.26 62-89.52 93.34-114.88z" fill="#0b56a6" fill-rule="evenodd"></path><path d="M401.86 189.61c0-16.17-19.69-31.82-51.49-44.08-35.08-13.48-83.86-21.85-138-21.85s-102.95 8.37-138 21.85c-31.88 12.26-51.58 27.91-51.58 44.08s19.68 31.81 51.5 44c35.07 13.5 83.85 21.85 138 21.85s103-8.35 138-21.85c31.8-12.23 51.49-27.89 51.49-44zm-43.39-65.28c40.91 15.76 66.21 38.72 66.21 65.28s-25.3 49.5-66.21 65.24c-37.65 14.49-89.34 23.45-146.14 23.45s-108.48-9-146.12-23.45C25.3 239.11 0 216.12 0 189.61s25.3-49.52 66.21-65.28c37.64-14.47 89.33-23.45 146.12-23.45s108.46 8.98 146.14 23.45z" fill="#0b56a6" fill-rule="evenodd"></path><path d="M307.1 353.77c14-8.08 17.7-33 12.38-66.73-5.84-37.12-23-83.49-49.93-130.28l-.09-.14c-27.05-46.83-58.66-84.87-87.91-108.54-26.57-21.47-50-30.72-64-22.66l-.82.49c-13.32 8.52-16.79 33.14-11.56 66.23 5.85 37.19 23 83.58 50 130.42 27 46.83 58.68 84.9 88 108.54 26.54 21.49 50 30.74 63.92 22.67zm34.84-70.18c6.8 43.21-.46 76.6-23.42 89.87s-55.58 2.89-89.61-24.64c-31.32-25.32-64.92-65.62-93.36-114.85l-1.57-2.72v-.07c-27.53-48.34-45.09-96.47-51.19-135.57-6.83-43.19.47-76.57 23.44-89.85.38-.22.77-.42 1.16-.63l1.59-.93h.24c22.78-10.8 54-.17 86.58 26.17 31.32 25.32 65 65.62 93.38 114.86v.05c28.39 49.29 46.5 98.49 52.76 138.31z" fill="#0b56a6" fill-rule="evenodd"></path></svg></svg> <!----></g></g> <g transform="translate(67,0)"><g data-gra="path-name" fill-rule="" class="tp-name iconsvg-namesvg" transform="translate(0,0)"><g transform="scale(1)"><g><path d="M42.66-13.99L42.66-13.99 41.04-13.99 41.04-4.95 42.66-4.95 42.66-2.02 41.04-2.02 41.04 2.43Q41.04 3.06 40.63 3.49 40.23 3.92 39.6 3.92L39.6 3.92 25.79 3.92 25.79 0.94 38.12 0.94 38.12-2.02 14.76-2.02Q14.13-2.02 13.68-2.48L13.68-2.48Q13.28-2.88 13.28-3.55L13.28-3.55 13.63-13.99 12.29-13.99 12.29-16.96 13.77-16.96 14.13-27Q14.13-27.63 14.56-28.04 14.98-28.44 15.57-28.44L15.57-28.44 39.6-28.44Q40.23-28.44 40.63-28.01 41.04-27.58 41.04-26.95L41.04-26.95 41.04-16.96 42.66-16.96 42.66-13.99ZM42.66-31L42.66-31 14.13-31Q13.32-31 12.87-31.77L12.87-31.77Q12.42-32.49 12.87-33.25L12.87-33.25 15.16-37.08 17.73-35.55 16.74-33.98 42.66-33.98 42.66-31ZM5.04 4.05L5.04 4.05 2.21 3.15 8.5-16.96 1.62-22.41 3.42-24.75 11.16-18.68Q11.52-18.36 11.65-17.93 11.79-17.5 11.65-17.05L11.65-17.05 5.04 4.05ZM12.51-29.47L10.62-27.22 2.11-34.29 4-36.59 12.51-29.47ZM38.12-16.96L38.12-25.47 17.01-25.47 16.7-16.96 26.73-16.96 24.57-22.05 27.31-23.18 29.97-16.96 38.12-16.96ZM16.61-13.99L16.29-4.95 26.73-4.95 24.57-10.04 27.31-11.21 30.02-4.95 38.12-4.95 38.12-13.99 16.61-13.99ZM85.09 3.96L85.09 3.96 76.59 3.96 76.59 0.99 83.66 0.99 83.66-22.27 51.48-22.27 51.48 3.92 48.51 3.92 48.51-23.76Q48.51-24.39 48.94-24.79 49.37-25.2 49.99-25.2L49.99-25.2 66.06-25.2 66.06-29.52 47.34-29.52 47.34-32.45 66.06-32.45 66.06-36.27 69.03-36.27 69.03-32.45 87.66-32.45 87.66-29.52 69.03-29.52 69.03-25.2 85.09-25.2Q85.72-25.2 86.15-24.79 86.58-24.39 86.58-23.76L86.58-23.76 86.58 2.48Q86.58 3.1 86.15 3.53 85.72 3.96 85.09 3.96L85.09 3.96ZM80.5-15.97L80.5-13 69.03-13 69.03-7.42 81-7.42 81-4.46 69.03-4.46 69.03 3.38 66.06 3.38 66.06-4.46 54.13-4.46 54.13-7.42 66.06-7.42 66.06-13 54.59-13 54.59-15.97 72.31-15.97 73.84-20.84 76.63-19.98 75.38-15.97 80.5-15.97ZM62.5-16.88L59.67-16.02 58.45-19.98 61.29-20.84 62.5-16.88ZM101.39-22.36L101.39-22.36 100.58-25.2 111.33-28.21 111.33-36.23 114.3-36.23 114.3-29.02 131.63-33.88 132.44-31.05 114.3-25.96 114.3-18.81 132.34-18.81 132.34-15.84 112.81-15.84Q112.19-15.84 111.76-16.27 111.33-16.7 111.33-17.32L111.33-17.32 111.33-25.15 101.39-22.36ZM97.69-14.35L97.69-14.35 94.72-14.35 94.72-30.51Q94.72-31.18 95.22-31.59L95.22-31.59 100.98-36.9 103-34.74 97.69-29.88 97.69-14.35ZM113.98-6.17L113.98 3.92 111.06 3.92 111.06-6.17 92.39-6.17 92.39-9.09 111.06-9.09 111.06-14.04 113.98-14.04 113.98-9.09 132.66-9.09 132.66-6.17 113.98-6.17ZM175.45-23.58L175.45-23.58 161.64-23.58 161.64-19.62 177.57-19.62 177.57-16.65 161.64-16.65 161.64-12.38 174.6-12.38Q175.23-12.38 175.63-11.95 176.04-11.52 176.04-10.89L176.04-10.89 176.04 2.38Q176.04 3.01 175.63 3.44 175.23 3.87 174.6 3.87L174.6 3.87 145.71 3.87Q145.08 3.87 144.65 3.44 144.22 3.01 144.22 2.38L144.22 2.38 144.22-10.89Q144.22-11.52 144.65-11.95 145.08-12.38 145.71-12.38L145.71-12.38 158.67-12.38 158.67-16.65 141.53-16.65 141.53-3.42Q141.53-3.06 141.44-2.92L141.44-2.92 138.69 4.37 135.9 3.33 138.6-3.69 138.6-24.88 138.6-25.06 138.6-34.2Q138.6-34.83 139-35.26 139.41-35.68 140.04-35.68L140.04-35.68 175.45-35.68Q176.09-35.68 176.51-35.26 176.94-34.83 176.94-34.2L176.94-34.2 176.94-25.06Q176.94-24.43 176.51-24.01 176.09-23.58 175.45-23.58L175.45-23.58ZM141.53-32.71L141.53-26.55 174.01-26.55 174.01-32.71 141.53-32.71ZM141.53-23.58L141.53-19.62 158.67-19.62 158.67-23.58 141.53-23.58ZM147.19-9.4L147.19 0.94 173.12 0.94 173.12-9.4 147.19-9.4Z" transform="translate(-1.6200000047683716, 37.08000183105469)"></path></g> <!----> <!----> <!----> <!----> <!----> <!----> <!----></g></g> <g data-gra="path-slogan" fill-rule="" class="tp-slogan iconsvg-slogansvg" fill="#0b56a6" transform="translate(5,47.45000076293945)"><rect x="0" height="1" y="3.8600001335144043" width="36.71000671386719"></rect> <rect height="1" y="3.8600001335144043" width="36.71000671386719" x="129.24000549316406"></rect> <g transform="translate(39.71000671386719,0)"><g transform="scale(1)"><path d="M2.06-5.06L6.56-5.06L6.56-8.58L7.73-8.58L7.73 0L6.56 0L6.56-3.98L2.06-3.98L2.06 0L0.89 0L0.89-8.58L2.06-8.58L2.06-5.06ZM15.19 0L14.34-2.48L10.88-2.48L9.98 0L8.81 0L12.05-8.58L13.36-8.58L16.45 0L15.19 0ZM12.61-7.31L11.25-3.52L13.92-3.52L12.66-7.31L12.61-7.31ZM17.67-8.58L18.84-8.58L18.84 0L17.67 0L17.67-8.58ZM22.22-8.58L26.53-1.64L26.53-8.58L27.66-8.58L27.66 0L26.34 0L21.98-6.94L21.94-6.94L21.94 0L20.81 0L20.81-8.58L22.22-8.58ZM35.11 0L34.27-2.48L30.80-2.48L29.91 0L28.73 0L31.97-8.58L33.28-8.58L36.38 0L35.11 0ZM32.53-7.31L31.17-3.52L33.84-3.52L32.58-7.31L32.53-7.31ZM38.81-8.58L43.13-1.64L43.13-8.58L44.25-8.58L44.25 0L42.94 0L38.58-6.94L38.53-6.94L38.53 0L37.41 0L37.41-8.58L38.81-8.58ZM50.53-5.06L55.03-5.06L55.03-8.58L56.20-8.58L56.20 0L55.03 0L55.03-3.98L50.53-3.98L50.53 0L49.36 0L49.36-8.58L50.53-8.58L50.53-5.06ZM63.66-3.19L63.66-8.58L64.83-8.58L64.83-3.05Q64.69 0.05 61.31 0.14L61.31 0.14Q58.17 0.05 58.03-2.86L58.03-2.86L58.03-8.58L59.20-8.58L59.20-3.19Q59.25-0.84 61.36-0.80L61.36-0.80Q63.66-0.84 63.66-3.19L63.66-3.19ZM72.28 0L71.44-2.48L67.97-2.48L67.08 0L65.91 0L69.14-8.58L70.45-8.58L73.55 0L72.28 0ZM69.70-7.31L68.34-3.52L71.02-3.52L69.75-7.31L69.70-7.31ZM73.88-1.92L73.88-2.77L74.95-2.77L74.95-2.16Q74.95-0.75 76.27-0.75L76.27-0.75Q77.63-0.75 77.63-2.25L77.63-2.25L77.63-8.58L78.80-8.58L78.80-2.30Q78.75 0.09 76.31 0.14L76.31 0.14Q74.02 0.09 73.88-1.92L73.88-1.92ZM86.25-3.19L86.25-8.58L87.42-8.58L87.42-3.05Q87.28 0.05 83.91 0.14L83.91 0.14Q80.77 0.05 80.63-2.86L80.63-2.86L80.63-8.58L81.80-8.58L81.80-3.19Q81.84-0.84 83.95-0.80L83.95-0.80Q86.25-0.84 86.25-3.19L86.25-3.19Z" transform="translate(-0.890625, 8.578125)"></path></g></g></g></g></g><defs v-gra="od"></defs></svg>